<mxfile host="app.diagrams.net" modified="2023-05-22T05:14:06.962Z" agent="Mozilla/5.0 (Windows NT 10.0; Win64; x64) AppleWebKit/537.36 (KHTML, like Gecko) Chrome/113.0.0.0 Safari/537.36" etag="SdkWzKxhCezoRZ-HIkVY" version="21.3.2" type="device">
  <diagram name="페이지-1" id="8deTtnJZwqHM8F8DkvY3">
    <mxGraphModel dx="1147" dy="559" grid="1" gridSize="10" guides="1" tooltips="1" connect="1" arrows="1" fold="1" page="1" pageScale="1" pageWidth="4681" pageHeight="3300" math="0" shadow="0">
      <root>
        <mxCell id="0" />
        <mxCell id="1" parent="0" />
        <mxCell id="zQLkn6mo3xjoV48m41CN-5" style="edgeStyle=orthogonalEdgeStyle;rounded=0;sketch=1;hachureGap=4;jiggle=2;curveFitting=1;orthogonalLoop=1;jettySize=auto;html=1;fontFamily=Architects Daughter;fontSource=https%3A%2F%2Ffonts.googleapis.com%2Fcss%3Ffamily%3DArchitects%2BDaughter;fontSize=16;entryX=0;entryY=0.5;entryDx=0;entryDy=0;" edge="1" parent="1" source="zQLkn6mo3xjoV48m41CN-2" target="zQLkn6mo3xjoV48m41CN-14">
          <mxGeometry relative="1" as="geometry">
            <mxPoint x="760" y="500" as="targetPoint" />
          </mxGeometry>
        </mxCell>
        <mxCell id="zQLkn6mo3xjoV48m41CN-2" value="관리자(DBA)" style="shape=umlActor;verticalLabelPosition=bottom;verticalAlign=top;html=1;outlineConnect=0;sketch=1;hachureGap=4;jiggle=2;curveFitting=1;fontFamily=Architects Daughter;fontSource=https%3A%2F%2Ffonts.googleapis.com%2Fcss%3Ffamily%3DArchitects%2BDaughter;fontSize=20;" vertex="1" parent="1">
          <mxGeometry x="640" y="440" width="80" height="120" as="geometry" />
        </mxCell>
        <mxCell id="zQLkn6mo3xjoV48m41CN-3" value="Storage" style="shape=cylinder3;whiteSpace=wrap;html=1;boundedLbl=1;backgroundOutline=1;size=15;sketch=1;hachureGap=4;jiggle=2;curveFitting=1;fontFamily=Architects Daughter;fontSource=https%3A%2F%2Ffonts.googleapis.com%2Fcss%3Ffamily%3DArchitects%2BDaughter;fontSize=20;" vertex="1" parent="1">
          <mxGeometry x="1280" y="450" width="80" height="100" as="geometry" />
        </mxCell>
        <mxCell id="zQLkn6mo3xjoV48m41CN-6" style="edgeStyle=orthogonalEdgeStyle;rounded=0;sketch=1;hachureGap=4;jiggle=2;curveFitting=1;orthogonalLoop=1;jettySize=auto;html=1;fontFamily=Architects Daughter;fontSource=https%3A%2F%2Ffonts.googleapis.com%2Fcss%3Ffamily%3DArchitects%2BDaughter;fontSize=16;" edge="1" parent="1" target="zQLkn6mo3xjoV48m41CN-3">
          <mxGeometry relative="1" as="geometry">
            <mxPoint x="1040" y="500" as="sourcePoint" />
          </mxGeometry>
        </mxCell>
        <mxCell id="zQLkn6mo3xjoV48m41CN-8" value="" style="edgeStyle=orthogonalEdgeStyle;rounded=0;sketch=1;hachureGap=4;jiggle=2;curveFitting=1;orthogonalLoop=1;jettySize=auto;html=1;fontFamily=Architects Daughter;fontSource=https%3A%2F%2Ffonts.googleapis.com%2Fcss%3Ffamily%3DArchitects%2BDaughter;fontSize=16;entryX=0;entryY=0.5;entryDx=0;entryDy=0;" edge="1" parent="1" target="zQLkn6mo3xjoV48m41CN-12">
          <mxGeometry relative="1" as="geometry">
            <mxPoint x="880" y="500" as="sourcePoint" />
            <mxPoint x="920" y="500" as="targetPoint" />
          </mxGeometry>
        </mxCell>
        <mxCell id="zQLkn6mo3xjoV48m41CN-9" value="DDL&lt;br&gt;(Data Definition Lang)" style="text;html=1;strokeColor=none;fillColor=none;align=center;verticalAlign=middle;whiteSpace=wrap;rounded=0;fontSize=20;fontFamily=Architects Daughter;" vertex="1" parent="1">
          <mxGeometry x="990" y="410" width="210" height="40" as="geometry" />
        </mxCell>
        <mxCell id="zQLkn6mo3xjoV48m41CN-13" value="" style="edgeStyle=orthogonalEdgeStyle;rounded=0;sketch=1;hachureGap=4;jiggle=2;curveFitting=1;orthogonalLoop=1;jettySize=auto;html=1;fontFamily=Architects Daughter;fontSource=https%3A%2F%2Ffonts.googleapis.com%2Fcss%3Ffamily%3DArchitects%2BDaughter;fontSize=16;exitX=1;exitY=0.5;exitDx=0;exitDy=0;exitPerimeter=0;" edge="1" parent="1" source="zQLkn6mo3xjoV48m41CN-12" target="zQLkn6mo3xjoV48m41CN-3">
          <mxGeometry relative="1" as="geometry" />
        </mxCell>
        <mxCell id="zQLkn6mo3xjoV48m41CN-19" style="edgeStyle=orthogonalEdgeStyle;rounded=0;sketch=1;hachureGap=4;jiggle=2;curveFitting=1;orthogonalLoop=1;jettySize=auto;html=1;fontFamily=Architects Daughter;fontSource=https%3A%2F%2Ffonts.googleapis.com%2Fcss%3Ffamily%3DArchitects%2BDaughter;fontSize=16;" edge="1" parent="1" source="zQLkn6mo3xjoV48m41CN-12" target="zQLkn6mo3xjoV48m41CN-18">
          <mxGeometry relative="1" as="geometry">
            <mxPoint x="1000" y="730" as="targetPoint" />
            <Array as="points">
              <mxPoint x="1100" y="580" />
              <mxPoint x="860" y="580" />
            </Array>
          </mxGeometry>
        </mxCell>
        <mxCell id="zQLkn6mo3xjoV48m41CN-12" value="DB, User Create&lt;br style=&quot;border-color: var(--border-color);&quot;&gt;DB, User DROP&lt;br style=&quot;border-color: var(--border-color);&quot;&gt;DB Alter" style="rounded=1;whiteSpace=wrap;html=1;sketch=1;hachureGap=4;jiggle=2;curveFitting=1;fontFamily=Architects Daughter;fontSource=https%3A%2F%2Ffonts.googleapis.com%2Fcss%3Ffamily%3DArchitects%2BDaughter;fontSize=20;" vertex="1" parent="1">
          <mxGeometry x="1000" y="462.5" width="200" height="75" as="geometry" />
        </mxCell>
        <mxCell id="zQLkn6mo3xjoV48m41CN-16" value="" style="edgeStyle=orthogonalEdgeStyle;rounded=0;sketch=1;hachureGap=4;jiggle=2;curveFitting=1;orthogonalLoop=1;jettySize=auto;html=1;fontFamily=Architects Daughter;fontSource=https%3A%2F%2Ffonts.googleapis.com%2Fcss%3Ffamily%3DArchitects%2BDaughter;fontSize=16;exitX=1;exitY=0.5;exitDx=0;exitDy=0;" edge="1" parent="1" source="zQLkn6mo3xjoV48m41CN-14" target="zQLkn6mo3xjoV48m41CN-12">
          <mxGeometry relative="1" as="geometry" />
        </mxCell>
        <mxCell id="zQLkn6mo3xjoV48m41CN-28" style="edgeStyle=orthogonalEdgeStyle;rounded=0;sketch=1;hachureGap=4;jiggle=2;curveFitting=1;orthogonalLoop=1;jettySize=auto;html=1;entryX=0;entryY=0.5;entryDx=0;entryDy=0;fontFamily=Architects Daughter;fontSource=https%3A%2F%2Ffonts.googleapis.com%2Fcss%3Ffamily%3DArchitects%2BDaughter;fontSize=16;" edge="1" parent="1" source="zQLkn6mo3xjoV48m41CN-14" target="zQLkn6mo3xjoV48m41CN-27">
          <mxGeometry relative="1" as="geometry">
            <Array as="points">
              <mxPoint x="860" y="325" />
            </Array>
          </mxGeometry>
        </mxCell>
        <mxCell id="zQLkn6mo3xjoV48m41CN-14" value="&lt;span style=&quot;color: rgb(0, 0, 0); font-family: &amp;quot;Architects Daughter&amp;quot;; font-size: 20px; font-style: normal; font-variant-ligatures: normal; font-variant-caps: normal; font-weight: 400; letter-spacing: normal; orphans: 2; text-align: center; text-indent: 0px; text-transform: none; widows: 2; word-spacing: 0px; -webkit-text-stroke-width: 0px; background-color: rgb(251, 251, 251); text-decoration-thickness: initial; text-decoration-style: initial; text-decoration-color: initial; float: none; display: inline !important;&quot;&gt;Sys 로그인&lt;/span&gt;" style="rounded=1;whiteSpace=wrap;html=1;sketch=1;hachureGap=4;jiggle=2;curveFitting=1;fontFamily=Architects Daughter;fontSource=https%3A%2F%2Ffonts.googleapis.com%2Fcss%3Ffamily%3DArchitects%2BDaughter;fontSize=20;" vertex="1" parent="1">
          <mxGeometry x="800" y="480" width="120" height="40" as="geometry" />
        </mxCell>
        <mxCell id="zQLkn6mo3xjoV48m41CN-22" style="edgeStyle=orthogonalEdgeStyle;rounded=0;sketch=1;hachureGap=4;jiggle=2;curveFitting=1;orthogonalLoop=1;jettySize=auto;html=1;fontFamily=Architects Daughter;fontSource=https%3A%2F%2Ffonts.googleapis.com%2Fcss%3Ffamily%3DArchitects%2BDaughter;fontSize=16;" edge="1" parent="1" source="zQLkn6mo3xjoV48m41CN-18" target="zQLkn6mo3xjoV48m41CN-21">
          <mxGeometry relative="1" as="geometry" />
        </mxCell>
        <mxCell id="zQLkn6mo3xjoV48m41CN-18" value="유저(User)" style="shape=umlActor;verticalLabelPosition=bottom;verticalAlign=top;html=1;outlineConnect=0;sketch=1;hachureGap=4;jiggle=2;curveFitting=1;fontFamily=Architects Daughter;fontSource=https%3A%2F%2Ffonts.googleapis.com%2Fcss%3Ffamily%3DArchitects%2BDaughter;fontSize=20;" vertex="1" parent="1">
          <mxGeometry x="820" y="630" width="80" height="120" as="geometry" />
        </mxCell>
        <mxCell id="zQLkn6mo3xjoV48m41CN-23" style="edgeStyle=orthogonalEdgeStyle;rounded=0;sketch=1;hachureGap=4;jiggle=2;curveFitting=1;orthogonalLoop=1;jettySize=auto;html=1;entryX=0.5;entryY=1;entryDx=0;entryDy=0;entryPerimeter=0;fontFamily=Architects Daughter;fontSource=https%3A%2F%2Ffonts.googleapis.com%2Fcss%3Ffamily%3DArchitects%2BDaughter;fontSize=16;" edge="1" parent="1" source="zQLkn6mo3xjoV48m41CN-24" target="zQLkn6mo3xjoV48m41CN-3">
          <mxGeometry relative="1" as="geometry" />
        </mxCell>
        <mxCell id="zQLkn6mo3xjoV48m41CN-21" value="User 로그인" style="rounded=1;whiteSpace=wrap;html=1;sketch=1;hachureGap=4;jiggle=2;curveFitting=1;fontFamily=Architects Daughter;fontSource=https%3A%2F%2Ffonts.googleapis.com%2Fcss%3Ffamily%3DArchitects%2BDaughter;fontSize=20;" vertex="1" parent="1">
          <mxGeometry x="1040" y="660" width="120" height="60" as="geometry" />
        </mxCell>
        <mxCell id="zQLkn6mo3xjoV48m41CN-25" value="" style="edgeStyle=orthogonalEdgeStyle;rounded=0;sketch=1;hachureGap=4;jiggle=2;curveFitting=1;orthogonalLoop=1;jettySize=auto;html=1;entryX=0;entryY=0.5;entryDx=0;entryDy=0;fontFamily=Architects Daughter;fontSource=https%3A%2F%2Ffonts.googleapis.com%2Fcss%3Ffamily%3DArchitects%2BDaughter;fontSize=16;" edge="1" parent="1" source="zQLkn6mo3xjoV48m41CN-21" target="zQLkn6mo3xjoV48m41CN-24">
          <mxGeometry relative="1" as="geometry">
            <mxPoint x="1160" y="690" as="sourcePoint" />
            <mxPoint x="1320" y="550" as="targetPoint" />
          </mxGeometry>
        </mxCell>
        <mxCell id="zQLkn6mo3xjoV48m41CN-24" value="CREAT : INSERT&lt;br&gt;READ : SELECT&lt;br&gt;UPDATE : UPDATE&lt;br&gt;DELETE : DELETE" style="rounded=1;whiteSpace=wrap;html=1;sketch=1;hachureGap=4;jiggle=2;curveFitting=1;fontFamily=Architects Daughter;fontSource=https%3A%2F%2Ffonts.googleapis.com%2Fcss%3Ffamily%3DArchitects%2BDaughter;fontSize=20;" vertex="1" parent="1">
          <mxGeometry x="1220" y="635" width="200" height="110" as="geometry" />
        </mxCell>
        <mxCell id="zQLkn6mo3xjoV48m41CN-26" value="DML&lt;br&gt;(Data Manuplulation Lang)" style="text;html=1;strokeColor=none;fillColor=none;align=center;verticalAlign=middle;whiteSpace=wrap;rounded=0;fontSize=20;fontFamily=Architects Daughter;" vertex="1" parent="1">
          <mxGeometry x="1190" y="760" width="260" height="30" as="geometry" />
        </mxCell>
        <mxCell id="zQLkn6mo3xjoV48m41CN-29" style="edgeStyle=orthogonalEdgeStyle;rounded=0;sketch=1;hachureGap=4;jiggle=2;curveFitting=1;orthogonalLoop=1;jettySize=auto;html=1;entryX=0.5;entryY=0;entryDx=0;entryDy=0;entryPerimeter=0;fontFamily=Architects Daughter;fontSource=https%3A%2F%2Ffonts.googleapis.com%2Fcss%3Ffamily%3DArchitects%2BDaughter;fontSize=16;" edge="1" parent="1" source="zQLkn6mo3xjoV48m41CN-27" target="zQLkn6mo3xjoV48m41CN-3">
          <mxGeometry relative="1" as="geometry" />
        </mxCell>
        <mxCell id="zQLkn6mo3xjoV48m41CN-27" value="GRANT, REVOKE,&lt;br&gt;COMMIT, ROLL BACK" style="rounded=1;whiteSpace=wrap;html=1;sketch=1;hachureGap=4;jiggle=2;curveFitting=1;fontFamily=Architects Daughter;fontSource=https%3A%2F%2Ffonts.googleapis.com%2Fcss%3Ffamily%3DArchitects%2BDaughter;fontSize=20;" vertex="1" parent="1">
          <mxGeometry x="985" y="300" width="220" height="50" as="geometry" />
        </mxCell>
        <mxCell id="zQLkn6mo3xjoV48m41CN-30" value="DCL&lt;br&gt;(Data Control Lang)" style="text;html=1;strokeColor=none;fillColor=none;align=center;verticalAlign=middle;whiteSpace=wrap;rounded=0;fontSize=20;fontFamily=Architects Daughter;" vertex="1" parent="1">
          <mxGeometry x="995" y="246" width="200" height="42" as="geometry" />
        </mxCell>
      </root>
    </mxGraphModel>
  </diagram>
</mxfile>
